# xmcd
#
# Track frame offsets: 
#        150
#        19037
#        35263
#        53594
#        70564
#
# Disc length: 1157 seconds
#
# Revision: 0
# Processed by: cddbd v1.5.2PL0 Copyright (c) Steve Scherf et al.
# Submitted via: ExactAudioCopyFreeDBPlugin 1.0
#
DISCID=30048305
DTITLE=Leo Kysela - bluehouse
DYEAR=1900
DGENRE=Blues
TTITLE0=All along the watchtower
TTITLE1=WGH Bluehouse
TTITLE2=Town Town
TTITLE3=Wanna get high
TTITLE4=WGH Bluehouse I-Version
EXTD=
EXTT0=
EXTT1=
EXTT2=
EXTT3=
EXTT4=
PLAYORDER=
